999
dxfrw 0.6.3
  0
SECTION
  2
HEADER
  9
$ACADVER
  1
AC1021
  9
$DWGCODEPAGE
  3
ANSI_1252
  9
$INSBASE
 10
0
 20
0
 30
0
  9
$EXTMIN
 10
-354.1125
 20
-123.5501255234377
 30
0
  9
$EXTMAX
 10
94.11250000000003
 20
133.5501255234377
 30
0
  9
$LIMMIN
 10
0
 20
0
  9
$LIMMAX
 10
420
 20
297
  9
$ORTHOMODE
 70
    0
  9
$REGENMODE
 70
    1
  9
$FILLMODE
 70
    1
  9
$QTEXTMODE
 70
    0
  9
$MIRRTEXT
 70
    0
  9
$LTSCALE
 40
1
  9
$ATTMODE
 70
    0
  9
$TEXTSIZE
 40
2.5
  9
$TRACEWID
 40
15.68
  9
$TEXTSTYLE
  7
STANDARD
  9
$CLAYER
  8
0
  9
$CELTYPE
  6
BYLAYER
  9
$CECOLOR
 62
  256
  9
$CELTSCALE
 40
1
  9
$DISPSILH
 70
    0
  9
$DIMSCALE
 40
2.5
  9
$DIMASZ
 40
2.5
  9
$DIMEXO
 40
0.625
  9
$DIMDLI
 40
3.75
  9
$DIMRND
 40
0
  9
$DIMDLE
 40
0
  9
$DIMEXE
 40
1.25
  9
$DIMTP
 40
0
  9
$DIMTM
 40
0
  9
$DIMTXT
 40
2.5
  9
$DIMCEN
 40
2.5
  9
$DIMTSZ
 40
0
  9
$DIMTOL
 70
    0
  9
$DIMLIM
 70
    0
  9
$DIMTIH
 70
    0
  9
$DIMTOH
 70
    0
  9
$DIMSE1
 70
    0
  9
$DIMSE2
 70
    0
  9
$DIMTAD
 70
    1
  9
$DIMZIN
 70
    8
  9
$DIMBLK
  1

  9
$DIMASO
 70
    1
  9
$DIMSHO
 70
    1
  9
$DIMPOST
  1

  9
$DIMAPOST
  1

  9
$DIMALT
 70
    0
  9
$DIMALTD
 70
    3
  9
$DIMALTF
 40
0.03937
  9
$DIMLFAC
 40
1
  9
$DIMTOFL
 70
    1
  9
$DIMTVP
 40
0
  9
$DIMTIX
 70
    0
  9
$DIMSOXD
 70
    0
  9
$DIMSAH
 70
    0
  9
$DIMBLK1
  1

  9
$DIMBLK2
  1

  9
$DIMSTYLE
  2
Standard
  9
$DIMCLRD
 70
    0
  9
$DIMCLRE
 70
    0
  9
$DIMCLRT
 70
    0
  9
$DIMTFAC
 40
1
  9
$DIMGAP
 40
0.625
  9
$DIMJUST
 70
    0
  9
$DIMSD1
 70
    0
  9
$DIMSD2
 70
    0
  9
$DIMTOLJ
 70
    0
  9
$DIMTZIN
 70
    8
  9
$DIMALTZ
 70
    0
  9
$DIMALTTZ
 70
    0
  9
$DIMUPT
 70
    0
  9
$DIMDEC
 70
    2
  9
$DIMTDEC
 70
    2
  9
$DIMALTU
 70
    2
  9
$DIMALTTD
 70
    3
  9
$DIMTXSTY
  7
STANDARD
  9
$DIMAUNIT
 70
    0
  9
$DIMADEC
 70
    0
  9
$DIMALTRND
 40
0
  9
$DIMAZIN
 70
    0
  9
$DIMDSEP
 70
   44
  9
$DIMATFIT
 70
    3
  9
$DIMFRAC
 70
    0
  9
$DIMLDRBLK
  1
STANDARD
  9
$DIMLUNIT
 70
    2
  9
$DIMLWD
 70
   -2
  9
$DIMLWE
 70
   -2
  9
$DIMTMOVE
 70
    0
  9
$DIMFXL
 40
1
  9
$DIMFXLON
 70
    0
  9
$DIMJOGANG
 40
0.7854
  9
$DIMTFILL
 70
    0
  9
$DIMTFILLCLR
 70
    0
  9
$DIMARCSYM
 70
    0
  9
$DIMLTYPE
  6

  9
$DIMLTEX1
  6

  9
$DIMLTEX2
  6

  9
$LUNITS
 70
    2
  9
$LUPREC
 70
    4
  9
$SKETCHINC
 40
1
  9
$FILLETRAD
 40
0
  9
$AUNITS
 70
    0
  9
$AUPREC
 70
    2
  9
$MENU
  1
.
  9
$ELEVATION
 40
0
  9
$PELEVATION
 40
0
  9
$THICKNESS
 40
0
  9
$LIMCHECK
 70
    0
  9
$CHAMFERA
 40
0
  9
$CHAMFERB
 40
0
  9
$CHAMFERC
 40
0
  9
$CHAMFERD
 40
0
  9
$SKPOLY
 70
    0
  9
$USRTIMER
 70
    1
  9
$ANGBASE
 50
0
  9
$ANGDIR
 70
    0
  9
$PDMODE
 70
   34
  9
$PDSIZE
 40
0
  9
$PLINEWID
 40
0
  9
$SPLFRAME
 70
    0
  9
$SPLINETYPE
 70
    2
  9
$SPLINESEGS
 70
    8
  9
$HANDSEED
  5
20000
  9
$SURFTAB1
 70
    6
  9
$SURFTAB2
 70
    6
  9
$SURFTYPE
 70
    6
  9
$SURFU
 70
    6
  9
$SURFV
 70
    6
  9
$UCSBASE
  2

  9
$UCSNAME
  2

  9
$UCSORG
 10
0
 20
0
 30
0
  9
$UCSXDIR
 10
1
 20
0
 30
0
  9
$UCSYDIR
 10
0
 20
1
 30
0
  9
$UCSORTHOREF
  2

  9
$UCSORTHOVIEW
 70
    0
  9
$UCSORGTOP
 10
0
 20
0
 30
0
  9
$UCSORGBOTTOM
 10
0
 20
0
 30
0
  9
$UCSORGLEFT
 10
0
 20
0
 30
0
  9
$UCSORGRIGHT
 10
0
 20
0
 30
0
  9
$UCSORGFRONT
 10
0
 20
0
 30
0
  9
$UCSORGBACK
 10
0
 20
0
 30
0
  9
$PUCSBASE
  2

  9
$PUCSNAME
  2

  9
$PUCSORG
 10
0
 20
0
 30
0
  9
$PUCSXDIR
 10
1
 20
0
 30
0
  9
$PUCSYDIR
 10
0
 20
1
 30
0
  9
$PUCSORTHOREF
  2

  9
$PUCSORTHOVIEW
 70
    0
  9
$PUCSORGTOP
 10
0
 20
0
 30
0
  9
$PUCSORGBOTTOM
 10
0
 20
0
 30
0
  9
$PUCSORGLEFT
 10
0
 20
0
 30
0
  9
$PUCSORGRIGHT
 10
0
 20
0
 30
0
  9
$PUCSORGFRONT
 10
0
 20
0
 30
0
  9
$PUCSORGBACK
 10
0
 20
0
 30
0
  9
$USERI1
 70
    0
  9
$USERI2
 70
    0
  9
$USERI3
 70
    0
  9
$USERI4
 70
    0
  9
$USERI5
 70
    0
  9
$USERR1
 40
0
  9
$USERR2
 40
0
  9
$USERR3
 40
0
  9
$USERR4
 40
0
  9
$USERR5
 40
0
  9
$WORLDVIEW
 70
    1
  9
$SHADEDGE
 70
    3
  9
$SHADEDIF
 70
   70
  9
$TILEMODE
 70
    1
  9
$MAXACTVP
 70
   64
  9
$PINSBASE
 10
0
 20
0
 30
0
  9
$PLIMCHECK
 70
    0
  9
$PEXTMIN
 10
0
 20
0
 30
0
  9
$PEXTMAX
 10
0
 20
0
 30
0
  9
$SNAPSTYLE
 70
    0
  9
$PLIMMIN
 10
0
 20
0
  9
$PLIMMAX
 10
420
 20
297
  9
$UNITMODE
 70
    0
  9
$VISRETAIN
 70
    1
  9
$PLINEGEN
 70
    0
  9
$PSLTSCALE
 70
    1
  9
$TREEDEPTH
 70
 3020
  9
$CMLSTYLE
  2
Standard
  9
$CMLJUST
 70
    0
  9
$CMLSCALE
 40
20
  9
$PROXYGRAPHICS
 70
    1
  9
$MEASUREMENT
 70
    1
  9
$CELWEIGHT
370
   -1
  9
$ENDCAPS
280
    0
  9
$JOINSTYLE
280
    0
  9
$LWDISPLAY
290
    0
  9
$INSUNITS
 70
    4
  9
$HYPERLINKBASE
  1

  9
$STYLESHEET
  1

  9
$XEDIT
290
    1
  9
$CEPSNTYPE
380
    0
  9
$PSTYLEMODE
290
    1
  9
$EXTNAMES
290
    1
  9
$PSVPSCALE
 40
1
  9
$OLESTARTUP
290
    0
  9
$SORTENTS
280
  127
  9
$INDEXCTL
280
    0
  9
$HIDETEXT
280
    1
  9
$XCLIPFRAME
290
    0
  9
$HALOGAP
280
    0
  9
$OBSCOLOR
 70
  257
  9
$OBSLTYPE
280
    0
  9
$INTERSECTIONDISPLAY
280
    0
  9
$INTERSECTIONCOLOR
 70
  257
  9
$DIMASSOC
280
    1
  9
$PROJECTNAME
  1

  9
$CAMERADISPLAY
290
    0
  9
$LENSLENGTH
 40
50
  9
$CAMERAHEIGHT
 40
0
  9
$STEPSPERSEC
 40
2
  9
$STEPSIZE
 40
50
  9
$3DDWFPREC
 40
2
  9
$PSOLWIDTH
 40
5
  9
$PSOLHEIGHT
 40
80
  9
$LOFTANG1
 40
1.570796326794897
  9
$LOFTANG2
 40
1.570796326794897
  9
$LOFTMAG1
 40
0
  9
$LOFTMAG2
 40
0
  9
$LOFTPARAM
 70
    7
  9
$LOFTNORMALS
280
    1
  9
$LATITUDE
 40
1
  9
$LONGITUDE
 40
1
  9
$NORTHDIRECTION
 40
0
  9
$TIMEZONE
 70
-8000
  9
$LIGHTGLYPHDISPLAY
280
    1
  9
$TILEMODELIGHTSYNCH
280
    1
  9
$SOLIDHIST
280
    1
  9
$SHOWHIST
280
    1
  9
$DWFFRAME
280
    2
  9
$DGNFRAME
280
    0
  9
$REALWORLDSCALE
290
    1
  9
$INTERFERECOLOR
 62
    1
  9
$CSHADOW
280
    0
  9
$SHADOWPLANELOCATION
 40
0
  0
ENDSEC
  0
SECTION
  2
CLASSES
  0
ENDSEC
  0
SECTION
  2
TABLES
  0
TABLE
  2
VPORT
  5
8
330
0
100
AcDbSymbolTable
 70
    1
  0
VPORT
  5
31
330
2
100
AcDbSymbolTableRecord
100
AcDbViewportTableRecord
  2
*ACTIVE
 70
    0
 10
0
 20
0
 11
1
 21
1
 12
158.8513320929594
 22
108.9492078675948
 13
0
 23
0
 14
10
 24
10
 15
10
 25
10
 16
0
 26
0
 36
1
 17
0
 27
0
 37
0
 40
252.8976431330697
 41
1.899107142857143
 42
50
 43
0
 44
0
 50
0
 51
0
 71
    0
 72
  100
 73
    1
 74
    3
 75
    0
 76
    1
 77
    0
 78
    0
281
    0
 65
    1
110
0
120
0
130
0
111
1
121
0
131
0
112
0
122
1
132
0
 79
    0
146
0
348
10020
 60
    7
 61
    5
292
1
282
    1
141
0
142
0
 63
  250
421
3358443
  0
ENDTAB
  0
TABLE
  2
LTYPE
  5
5
330
0
100
AcDbSymbolTable
 70
    4
  0
LTYPE
  5
14
330
5
100
AcDbSymbolTableRecord
100
AcDbLinetypeTableRecord
  2
ByBlock
 70
    0
  3

 72
   65
 73
    0
 40
0
  0
LTYPE
  5
15
330
5
100
AcDbSymbolTableRecord
100
AcDbLinetypeTableRecord
  2
ByLayer
 70
    0
  3

 72
   65
 73
    0
 40
0
  0
LTYPE
  5
16
330
5
100
AcDbSymbolTableRecord
100
AcDbLinetypeTableRecord
  2
Continuous
 70
    0
  3
Solid line
 72
   65
 73
    0
 40
0
  0
LTYPE
  5
32
330
5
100
AcDbSymbolTableRecord
100
AcDbLinetypeTableRecord
  2
DOT
 70
    0
  3
Dot . . . . . . . . . . . . . . . . . . . . . .
 72
   65
 73
    2
 40
6.35
 49
0
 74
    0
 49
-6.35
 74
    0
  0
LTYPE
  5
33
330
5
100
AcDbSymbolTableRecord
100
AcDbLinetypeTableRecord
  2
DOTTINY
 70
    0
  3
Dot (.15x) .....................................
 72
   65
 73
    2
 40
0.9525
 49
0
 74
    0
 49
-0.9525
 74
    0
  0
LTYPE
  5
34
330
5
100
AcDbSymbolTableRecord
100
AcDbLinetypeTableRecord
  2
DOT2
 70
    0
  3
Dot (.5x) .....................................
 72
   65
 73
    2
 40
3.175
 49
0
 74
    0
 49
-3.175
 74
    0
  0
LTYPE
  5
35
330
5
100
AcDbSymbolTableRecord
100
AcDbLinetypeTableRecord
  2
DOTX2
 70
    0
  3
Dot (2x) .  .  .  .  .  .  .  .  .  .  .  .  .
 72
   65
 73
    2
 40
12.7
 49
0
 74
    0
 49
-12.7
 74
    0
  0
LTYPE
  5
36
330
5
100
AcDbSymbolTableRecord
100
AcDbLinetypeTableRecord
  2
DASHED
 70
    0
  3
Dashed _ _ _ _ _ _ _ _ _ _ _ _ _ _ _ _ _
 72
   65
 73
    2
 40
19.05
 49
12.7
 74
    0
 49
-6.35
 74
    0
  0
LTYPE
  5
37
330
5
100
AcDbSymbolTableRecord
100
AcDbLinetypeTableRecord
  2
DASHEDTINY
 70
    0
  3
Dashed (.15x) _ _ _ _ _ _ _ _ _ _ _ _ _ _ _ _ _
 72
   65
 73
    2
 40
2.8575
 49
1.905
 74
    0
 49
-0.9525
 74
    0
  0
LTYPE
  5
38
330
5
100
AcDbSymbolTableRecord
100
AcDbLinetypeTableRecord
  2
DASHED2
 70
    0
  3
Dashed (.5x) _ _ _ _ _ _ _ _ _ _ _ _ _ _ _ _ _
 72
   65
 73
    2
 40
9.524999999999999
 49
6.35
 74
    0
 49
-3.175
 74
    0
  0
LTYPE
  5
39
330
5
100
AcDbSymbolTableRecord
100
AcDbLinetypeTableRecord
  2
DASHEDX2
 70
    0
  3
Dashed (2x) ____  ____  ____  ____  ____  ___
 72
   65
 73
    2
 40
38.09999999999999
 49
25.4
 74
    0
 49
-12.7
 74
    0
  0
LTYPE
  5
3A
330
5
100
AcDbSymbolTableRecord
100
AcDbLinetypeTableRecord
  2
DASHDOT
 70
    0
  3
Dash dot __ . __ . __ . __ . __ . __ . __ . __
 72
   65
 73
    4
 40
25.4
 49
12.7
 74
    0
 49
-6.35
 74
    0
 49
0
 74
    0
 49
-6.35
 74
    0
  0
LTYPE
  5
3B
330
5
100
AcDbSymbolTableRecord
100
AcDbLinetypeTableRecord
  2
DASHDOTTINY
 70
    0
  3
Dash dot (.15x) _._._._._._._._._._._._._._._.
 72
   65
 73
    4
 40
3.81
 49
1.905
 74
    0
 49
-0.9525
 74
    0
 49
0
 74
    0
 49
-0.9525
 74
    0
  0
LTYPE
  5
3C
330
5
100
AcDbSymbolTableRecord
100
AcDbLinetypeTableRecord
  2
DASHDOT2
 70
    0
  3
Dash dot (.5x) _._._._._._._._._._._._._._._.
 72
   65
 73
    4
 40
12.7
 49
6.35
 74
    0
 49
-3.175
 74
    0
 49
0
 74
    0
 49
-3.175
 74
    0
  0
LTYPE
  5
3D
330
5
100
AcDbSymbolTableRecord
100
AcDbLinetypeTableRecord
  2
DASHDOTX2
 70
    0
  3
Dash dot (2x) ____  .  ____  .  ____  .  ___
 72
   65
 73
    4
 40
50.8
 49
25.4
 74
    0
 49
-12.7
 74
    0
 49
0
 74
    0
 49
-12.7
 74
    0
  0
LTYPE
  5
3E
330
5
100
AcDbSymbolTableRecord
100
AcDbLinetypeTableRecord
  2
DIVIDE
 70
    0
  3
Divide ____ . . ____ . . ____ . . ____ . . ____
 72
   65
 73
    6
 40
31.75
 49
12.7
 74
    0
 49
-6.35
 74
    0
 49
0
 74
    0
 49
-6.35
 74
    0
 49
0
 74
    0
 49
-6.35
 74
    0
  0
LTYPE
  5
3F
330
5
100
AcDbSymbolTableRecord
100
AcDbLinetypeTableRecord
  2
DIVIDETINY
 70
    0
  3
Divide (.15x) __..__..__..__..__..__..__..__.._
 72
   65
 73
    6
 40
4.7625
 49
1.905
 74
    0
 49
-0.9525
 74
    0
 49
0
 74
    0
 49
-0.9525
 74
    0
 49
0
 74
    0
 49
-0.9525
 74
    0
  0
LTYPE
  5
40
330
5
100
AcDbSymbolTableRecord
100
AcDbLinetypeTableRecord
  2
DIVIDE2
 70
    0
  3
Divide (.5x) __..__..__..__..__..__..__..__.._
 72
   65
 73
    6
 40
15.875
 49
6.35
 74
    0
 49
-3.175
 74
    0
 49
0
 74
    0
 49
-3.175
 74
    0
 49
0
 74
    0
 49
-3.175
 74
    0
  0
LTYPE
  5
41
330
5
100
AcDbSymbolTableRecord
100
AcDbLinetypeTableRecord
  2
DIVIDEX2
 70
    0
  3
Divide (2x) ________  .  .  ________  .  .  _
 72
   65
 73
    6
 40
63.5
 49
25.4
 74
    0
 49
-12.7
 74
    0
 49
0
 74
    0
 49
-12.7
 74
    0
 49
0
 74
    0
 49
-12.7
 74
    0
  0
LTYPE
  5
42
330
5
100
AcDbSymbolTableRecord
100
AcDbLinetypeTableRecord
  2
BORDER
 70
    0
  3
Border __ __ . __ __ . __ __ . __ __ . __ __ .
 72
   65
 73
    6
 40
44.45
 49
12.7
 74
    0
 49
-6.35
 74
    0
 49
12.7
 74
    0
 49
-6.35
 74
    0
 49
0
 74
    0
 49
-6.35
 74
    0
  0
LTYPE
  5
43
330
5
100
AcDbSymbolTableRecord
100
AcDbLinetypeTableRecord
  2
BORDERTINY
 70
    0
  3
Border (.15x) __.__.__.__.__.__.__.__.__.__.__.
 72
   65
 73
    6
 40
6.6675
 49
1.905
 74
    0
 49
-0.9525
 74
    0
 49
1.905
 74
    0
 49
-0.9525
 74
    0
 49
0
 74
    0
 49
-0.9525
 74
    0
  0
LTYPE
  5
44
330
5
100
AcDbSymbolTableRecord
100
AcDbLinetypeTableRecord
  2
BORDER2
 70
    0
  3
Border (.5x) __.__.__.__.__.__.__.__.__.__.__.
 72
   65
 73
    6
 40
22.225
 49
6.35
 74
    0
 49
-3.175
 74
    0
 49
6.35
 74
    0
 49
-3.175
 74
    0
 49
0
 74
    0
 49
-3.175
 74
    0
  0
LTYPE
  5
45
330
5
100
AcDbSymbolTableRecord
100
AcDbLinetypeTableRecord
  2
BORDERX2
 70
    0
  3
Border (2x) ____  ____  .  ____  ____  .  ___
 72
   65
 73
    6
 40
88.89999999999999
 49
25.4
 74
    0
 49
-12.7
 74
    0
 49
25.4
 74
    0
 49
-12.7
 74
    0
 49
0
 74
    0
 49
-12.7
 74
    0
  0
LTYPE
  5
46
330
5
100
AcDbSymbolTableRecord
100
AcDbLinetypeTableRecord
  2
CENTER
 70
    0
  3
Center ____ _ ____ _ ____ _ ____ _ ____ _ ____
 72
   65
 73
    4
 40
50.8
 49
31.75
 74
    0
 49
-6.35
 74
    0
 49
6.35
 74
    0
 49
-6.35
 74
    0
  0
LTYPE
  5
47
330
5
100
AcDbSymbolTableRecord
100
AcDbLinetypeTableRecord
  2
CENTERTINY
 70
    0
  3
Center (.15x) ___ _ ___ _ ___ _ ___ _ ___ _ ___
 72
   65
 73
    4
 40
7.62
 49
4.7625
 74
    0
 49
-0.9525
 74
    0
 49
0.9525
 74
    0
 49
-0.9525
 74
    0
  0
LTYPE
  5
48
330
5
100
AcDbSymbolTableRecord
100
AcDbLinetypeTableRecord
  2
CENTER2
 70
    0
  3
Center (.5x) ___ _ ___ _ ___ _ ___ _ ___ _ ___
 72
   65
 73
    4
 40
28.575
 49
19.05
 74
    0
 49
-3.175
 74
    0
 49
3.175
 74
    0
 49
-3.175
 74
    0
  0
LTYPE
  5
49
330
5
100
AcDbSymbolTableRecord
100
AcDbLinetypeTableRecord
  2
CENTERX2
 70
    0
  3
Center (2x) ________  __  ________  __  _____
 72
   65
 73
    4
 40
101.6
 49
63.5
 74
    0
 49
-12.7
 74
    0
 49
12.7
 74
    0
 49
-12.7
 74
    0
  0
ENDTAB
  0
TABLE
  2
LAYER
  5
2
330
0
100
AcDbSymbolTable
 70
    1
  0
LAYER
  5
10
330
2
100
AcDbSymbolTableRecord
100
AcDbLayerTableRecord
  2
0
 70
    0
 62
    7
  6
CONTINUOUS
370
   -3
390
F
  0
ENDTAB
  0
TABLE
  2
STYLE
  5
3
330
0
100
AcDbSymbolTable
 70
    3
  0
STYLE
  5
4A
330
2
100
AcDbSymbolTableRecord
100
AcDbTextStyleTableRecord
  2
Standard
 70
    0
 40
0
 41
1
 50
0
 71
    0
 42
1
  3
txt
  4

  0
ENDTAB
  0
TABLE
  2
VIEW
  5
6
330
0
100
AcDbSymbolTable
 70
    0
  0
ENDTAB
  0
TABLE
  2
UCS
  5
7
330
0
100
AcDbSymbolTable
 70
    0
  0
ENDTAB
  0
TABLE
  2
APPID
  5
9
330
0
100
AcDbSymbolTable
 70
    1
  0
APPID
  5
12
330
9
100
AcDbSymbolTableRecord
100
AcDbRegAppTableRecord
  2
ACAD
 70
    0
  0
APPID
  5
4B
330
9
100
AcDbSymbolTableRecord
100
AcDbRegAppTableRecord
  2
LibreCad
 70
    0
  0
ENDTAB
  0
TABLE
  2
DIMSTYLE
  5
A
330
0
100
AcDbSymbolTable
 70
    1
100
AcDbDimStyleTable
 71
    1
  0
DIMSTYLE
105
4C
330
A
100
AcDbSymbolTableRecord
100
AcDbDimStyleTableRecord
  2
Standard
 70
    0
 40
1
 41
2.5
 42
0.625
 43
0.38
 44
1.25
 45
0
 46
0
 47
0
 48
0
 49
1
140
2.5
141
0.09
142
2.5
143
25.4
144
1
145
0
146
1
147
0.625
148
0
 71
    0
 72
    0
 73
    0
 74
    1
 75
    0
 76
    0
 77
    0
 78
    1
 79
    0
170
    0
171
    2
172
    0
173
    0
174
    0
175
    0
176
    0
177
    0
178
    0
179
    0
271
    2
272
    4
273
    2
274
    2
275
    0
276
    0
277
    2
278
    0
279
    0
280
    0
281
    0
282
    0
283
    1
284
    0
285
    0
286
    0
288
    0
289
    3
340
standard
341

371
   -2
372
   -2
  0
ENDTAB
  0
TABLE
  2
BLOCK_RECORD
  5
1
330
0
100
AcDbSymbolTable
 70
    2
  0
BLOCK_RECORD
  5
1F
330
1
100
AcDbSymbolTableRecord
100
AcDbBlockTableRecord
  2
*Model_Space
 70
    0
280
    1
281
    0
  0
BLOCK_RECORD
  5
1E
330
1
100
AcDbSymbolTableRecord
100
AcDbBlockTableRecord
  2
*Paper_Space
 70
    0
280
    1
281
    0
  0
ENDTAB
  0
ENDSEC
  0
SECTION
  2
BLOCKS
  0
BLOCK
  5
20
330
1F
100
AcDbEntity
  8
0
100
AcDbBlockBegin
  2
*Model_Space
 70
    0
 10
0
 20
0
 30
0
  3
*Model_Space
  1

  0
ENDBLK
  5
21
330
1F
100
AcDbEntity
  8
0
100
AcDbBlockEnd
  0
BLOCK
  5
1C
330
1B
100
AcDbEntity
  8
0
100
AcDbBlockBegin
  2
*Paper_Space
 70
    0
 10
0
 20
0
 30
0
  3
*Paper_Space
  1

  0
ENDBLK
  5
1D
330
1F
100
AcDbEntity
  8
0
100
AcDbBlockEnd
  0
ENDSEC
  0
SECTION
  2
ENTITIES
  0
LWPOLYLINE
  5
4D
100
AcDbEntity
  8
0
  6
ByLayer
 62
  256
370
   -1
100
AcDbPolyline
 90
   56
 70
    1
 43
0
 10
37.9875
 20
4.837625523437464
 42
-0.4142135623730958
 10
35.98750000000001
 20
2.837625523437466
 10
34.98750000000001
 20
2.837625523437459
 42
-0.4142135623730961
 10
32.98750000000001
 20
4.837625523437463
 10
32.98750000000002
 20
5.187625523437463
 42
0.4142135623730961
 10
30.98750000000001
 20
7.187625523437475
 10
25.08736841740802
 20
7.187625523437255
 42
-0.1243688756259905
 10
24.13742105044497
 20
7.427625523437256
 42
0.2526455763199515
 10
21.28757894955601
 20
7.427625523437433
 42
-0.1243688756259821
 10
20.33763158259308
 20
7.187625523437475
 10
16.96249999999998
 20
7.187625523437479
 42
-0.4142135623730961
 10
14.96249999999998
 20
9.187625523437486
 10
14.96250000000066
 20
127.2001255234372
 42
-0.414213562373095
 10
16.96250000000001
 20
129.2001255234365
 10
20.33763158259401
 20
129.2001255234364
 42
-0.1243688756257927
 10
21.28757894955586
 20
128.9601255234371
 42
0.2526455763198741
 10
24.13742105044443
 20
128.9601255234368
 42
-0.1243688756259018
 10
25.08736841740702
 20
129.2001255234365
 10
30.98750000000004
 20
129.2001255234378
 42
0.414213562373095
 10
32.98750000000004
 20
131.2001255234378
 10
32.98749999999973
 20
131.5501255234374
 42
-0.4142135623731013
 10
34.98750000000004
 20
133.5501255234377
 10
35.98750000000004
 20
133.5501255234374
 42
-0.4142135623730971
 10
37.98750000000004
 20
131.5501255234374
 10
37.98750000000006
 20
131.2001255234378
 42
0.4142135623730888
 10
39.98750000000004
 20
129.2001255234365
 10
69.08750000000001
 20
129.2001255234378
 42
0.414213562373095
 10
71.08750000000001
 20
131.2001255234378
 10
71.08749999999955
 20
131.5501255234373
 42
-0.4142135623730825
 10
73.08750000000001
 20
133.5501255234377
 10
74.08750000000001
 20
133.5501255234373
 42
-0.4142135623731075
 10
76.08750000000001
 20
131.5501255234374
 10
76.08749999999999
 20
131.2001255234378
 42
0.4142135623730867
 10
78.08750000000001
 20
129.2001255234365
 10
83.9876315825941
 20
129.2001255234364
 42
-0.1243688756257898
 10
84.9375789495559
 20
128.9601255234371
 42
0.2526455763198854
 10
87.78742105044412
 20
128.9601255234372
 42
-0.1243688756257742
 10
88.73736841740603
 20
129.2001255234365
 10
92.11250000000004
 20
129.2001255234372
 42
-0.4142135623730701
 10
94.11249999999998
 20
127.2001255234372
 10
94.11250000000003
 20
9.187625523437459
 42
-0.4142135623730755
 10
92.11250000000001
 20
7.187625523437466
 10
88.73736841740799
 20
7.187625523437325
 42
-0.1243688756260078
 10
87.78742105044493
 20
7.427625523437339
 42
0.2526455763200184
 10
84.93757894955502
 20
7.427625523437486
 42
-0.1243688756259914
 10
83.98763158259203
 20
7.187625523437468
 10
78.08749999999998
 20
7.187625523437471
 42
0.4142135623730935
 10
76.08749999999998
 20
5.187625523437484
 10
76.08750000000012
 20
4.83762552343747
 42
-0.4142135623731099
 10
74.08749999999998
 20
2.837625523437455
 10
73.08749999999998
 20
2.837625523437512
 42
-0.4142135623730736
 10
71.08749999999998
 20
4.837625523437472
 10
71.08749999999998
 20
5.187625523437482
 42
0.4142135623730935
 10
69.08749999999998
 20
7.18762552343747
 10
39.98750000000001
 20
7.187625523437465
 42
0.414213562373095
 10
37.98750000000001
 20
5.187625523437466
  0
CIRCLE
  5
4E
100
AcDbEntity
  8
0
  6
ByLayer
 62
  256
370
   -1
100
AcDbCircle
 10
35.48750000000001
 20
131.3001255234367
 40
1.15000000000002
  0
CIRCLE
  5
4F
100
AcDbEntity
  8
0
  6
ByLayer
 62
  256
370
   -1
100
AcDbCircle
 10
35.48750000000001
 20
5.087625523437464
 40
1.15000000000002
  0
LWPOLYLINE
  5
50
100
AcDbEntity
  8
0
  6
ByLayer
 62
  256
370
   -1
100
AcDbPolyline
 90
    8
 70
    1
 43
0
 10
57.0625
 20
81.83762552343751
 10
57.0625
 20
68.8376255234375
 42
0.41421356237312
 10
57.5625
 20
68.33762552343745
 10
70.5625
 20
68.33762552343752
 42
0.4142135623732074
 10
71.0625
 20
68.83762552343751
 10
71.06249999999994
 20
81.8376255234375
 42
0.4142135623730284
 10
70.5625
 20
82.33762552343744
 10
57.5625
 20
82.33762552343751
 42
0.4142135623730867
  0
LWPOLYLINE
  5
51
100
AcDbEntity
  8
0
  6
ByLayer
 62
  256
370
   -1
100
AcDbPolyline
 90
   24
 70
    1
 43
0
 10
75.61250000000001
 20
50.37462552343759
 42
-0.4142135623730867
 10
76.1124999999999
 20
49.87462552343759
 10
76.11250000000013
 20
49.78762552343748
 42
0.414213562372991
 10
76.61250000000001
 20
49.28762552343753
 10
89.61250000000001
 20
49.28762552343747
 42
0.4142135623732282
 10
90.11250000000013
 20
49.78762552343747
 10
90.11250000000013
 20
81.8376255234375
 42
0.4142135623731283
 10
89.61250000000001
 20
82.33762552343755
 10
76.61250000000001
 20
82.3376255234375
 42
0.4142135623731616
 10
76.11250000000013
 20
81.8376255234375
 10
76.11249999999993
 20
81.75062552343761
 42
-0.414213562373095
 10
75.61250000000001
 20
81.25062552343758
 10
74.61250000000001
 20
81.25062552343755
 42
0.4142135623731866
 10
74.11250000000001
 20
80.75062552343752
 10
74.11250000000004
 20
74.75062552343745
 42
0.4142135623730118
 10
74.61250000000001
 20
74.25062552343751
 10
75.61250000000001
 20
74.25062552343758
 42
-0.4142135623731408
 10
76.11250000000013
 20
73.75062552343749
 10
76.1124999999999
 20
57.87462552343751
 42
-0.4142135623731242
 10
75.61250000000001
 20
57.37462552343757
 10
74.61250000000001
 20
57.37462552343751
 42
0.4142135623732074
 10
74.11250000000001
 20
56.87462552343752
 10
74.11249999999998
 20
50.87462552343757
 42
0.4142135623730367
 10
74.61250000000001
 20
50.37462552343752
  0
LWPOLYLINE
  5
52
100
AcDbEntity
  8
0
  6
ByLayer
 62
  256
370
   -1
100
AcDbPolyline
 90
    8
 70
    1
 43
0
 10
57.0625
 20
24.68762552343746
 10
57.0625
 20
11.6876255234375
 42
0.4142135623731013
 10
57.5625
 20
11.18762552343749
 10
70.5625
 20
11.18762552343751
 42
0.414213562373177
 10
71.0625
 20
11.6876255234375
 10
71.0625
 20
24.68762552343745
 42
0.4142135623730523
 10
70.5625
 20
25.1876255234375
 10
57.5625
 20
25.18762552343746
 42
0.4142135623731106
  0
LWPOLYLINE
  5
53
100
AcDbEntity
  8
0
  6
ByLayer
 62
  256
370
   -1
100
AcDbPolyline
 90
    8
 70
    1
 43
0
 10
18.96249999999998
 20
62.7876255234375
 10
18.96249999999998
 20
49.78762552343748
 42
0.4142135623730576
 10
19.46249999999998
 20
49.28762552343744
 10
32.46249999999998
 20
49.28762552343748
 42
0.414213562373095
 10
32.96249999999998
 20
49.78762552343748
 10
32.96249999999996
 20
62.78762552343749
 42
0.4142135623731283
 10
32.46249999999998
 20
63.28762552343753
 10
19.46249999999998
 20
63.28762552343748
 42
0.4142135623730784
  0
LWPOLYLINE
  5
54
100
AcDbEntity
  8
0
  6
ByLayer
 62
  256
370
   -1
100
AcDbPolyline
 90
    8
 70
    1
 43
0
 10
51.51249999999999
 20
63.28762552343753
 10
38.51249999999999
 20
63.28762552343753
 42
0.4142135623730617
 10
38.01249999999999
 20
62.78762552343749
 10
38.01249999999997
 20
49.78762552343748
 42
0.4142135623731117
 10
38.51249999999999
 20
49.28762552343743
 10
51.51249999999999
 20
49.28762552343748
 42
0.4142135623731117
 10
52.01250000000005
 20
49.78762552343748
 10
52.01250000000006
 20
62.78762552343749
 42
0.414213562373145
  0
LWPOLYLINE
  5
55
100
AcDbEntity
  8
0
  6
ByLayer
 62
  256
370
   -1
100
AcDbPolyline
 90
   24
 70
    1
 43
0
 10
75.61250000000001
 20
12.27462552343751
 42
-0.4142135623730844
 10
76.1124999999999
 20
11.77462552343751
 10
76.1125000000001
 20
11.68762552343751
 42
0.4142135623732199
 10
76.61250000000001
 20
11.1876255234375
 10
89.61250000000001
 20
11.1876255234375
 42
0.4142135623731936
 10
90.11250000000007
 20
11.6876255234375
 10
90.11250000000013
 20
43.73762552343746
 42
0.4142135623731242
 10
89.61250000000001
 20
44.23762552343761
 10
76.61250000000001
 20
44.23762552343747
 42
0.4142135623731616
 10
76.11250000000013
 20
43.73762552343747
 10
76.11249999999993
 20
43.65062552343748
 42
-0.4142135623731242
 10
75.61250000000001
 20
43.15062552343753
 10
74.61250000000001
 20
43.15062552343749
 42
0.4142135623731783
 10
74.11250000000001
 20
42.65062552343749
 10
74.11249999999998
 20
36.65062552343753
 42
0.4142135623730367
 10
74.61250000000001
 20
36.15062552343748
 10
75.61250000000001
 20
36.15062552343762
 42
-0.4142135623731387
 10
76.11250000000013
 20
35.65062552343755
 10
76.11249999999991
 20
19.77462552343747
 42
-0.4142135623730846
 10
75.61250000000001
 20
19.27462552343747
 10
74.61250000000001
 20
19.27462552343749
 42
0.4142135623731772
 10
74.11250000000001
 20
18.77462552343749
 10
74.1125
 20
12.77462552343751
 42
0.4142135623730274
 10
74.61250000000001
 20
12.27462552343749
  0
LWPOLYLINE
  5
56
100
AcDbEntity
  8
0
  6
ByLayer
 62
  256
370
   -1
100
AcDbPolyline
 90
    8
 70
    1
 43
0
 10
70.5625
 20
44.23762552343752
 10
57.5625
 20
44.23762552343751
 42
0.4142135623730534
 10
57.0625
 20
43.73762552343747
 10
57.06249999999998
 20
30.73762552343756
 42
0.4142135623731159
 10
57.5625
 20
30.23762552343751
 10
70.5625
 20
30.23762552343756
 42
0.4142135623731783
 10
71.0625
 20
30.73762552343756
 10
71.06249999999997
 20
43.73762552343747
 42
0.4142135623730784
  0
LWPOLYLINE
  5
57
100
AcDbEntity
  8
0
  6
ByLayer
 62
  256
370
   -1
100
AcDbPolyline
 90
    8
 70
    1
 43
0
 10
57.5625
 20
49.28762552343746
 42
-0.4142135623731034
 10
57.0625
 20
49.78762552343748
 10
57.06250000000001
 20
62.78762552343749
 42
-0.414213562373095
 10
57.5625
 20
63.28762552343748
 10
70.5625
 20
63.28762552343753
 42
-0.4142135623731075
 10
71.0625
 20
62.78762552343749
 10
71.0625
 20
49.78762552343748
 42
-0.4142135623732282
 10
70.5625
 20
49.28762552343748
  0
LWPOLYLINE
  5
58
100
AcDbEntity
  8
0
  6
ByLayer
 62
  256
370
   -1
100
AcDbPolyline
 90
    8
 70
    1
 43
0
 10
38.01249999999999
 20
81.83762552343751
 10
38.01249999999999
 20
68.8376255234375
 42
0.41421356237312
 10
38.51249999999999
 20
68.33762552343745
 10
51.51249999999999
 20
68.33762552343752
 42
0.4142135623731117
 10
52.01250000000005
 20
68.83762552343751
 10
52.01250000000006
 20
81.83762552343751
 42
0.4142135623731533
 10
51.51249999999999
 20
82.33762552343757
 10
38.51249999999999
 20
82.33762552343751
 42
0.4142135623730867
  0
LWPOLYLINE
  5
59
100
AcDbEntity
  8
0
  6
ByLayer
 62
  256
370
   -1
100
AcDbPolyline
 90
   24
 70
    1
 43
0
 10
20.04950000000003
 20
25.68762552343745
 42
-0.4142135623730264
 10
19.54950000000002
 20
25.18762552343745
 10
19.46249999999998
 20
25.18762552343746
 42
0.4142135623731106
 10
18.96249999999998
 20
24.68762552343746
 10
18.96249999999998
 20
11.68762552343751
 42
0.4142135623730567
 10
19.46249999999998
 20
11.18762552343747
 10
51.51249999999999
 20
11.18762552343751
 42
0.4142135623731057
 10
52.0125000000001
 20
11.68762552343751
 10
52.01250000000006
 20
24.68762552343746
 42
0.4142135623731429
 10
51.51249999999999
 20
25.1876255234375
 10
51.4255
 20
25.18762552343745
 42
-0.4142135623730076
 10
50.92550000000006
 20
25.68762552343744
 10
50.92550000000001
 20
26.68762552343751
 42
0.4142135623731221
 10
50.4255
 20
27.18762552343745
 10
44.4255
 20
27.18762552343751
 42
0.4142135623730867
 10
43.9255
 20
26.68762552343751
 10
43.92549999999992
 20
25.68762552343744
 42
-0.4142135623730097
 10
43.42550000000006
 20
25.1876255234375
 10
27.54950000000002
 20
25.18762552343747
 42
-0.4142135623730784
 10
27.04950000000002
 20
25.68762552343745
 10
27.04950000000003
 20
26.68762552343751
 42
0.4142135623731221
 10
26.54950000000002
 20
27.18762552343746
 10
20.54950000000008
 20
27.18762552343751
 42
0.4142135623730201
 10
20.04950000000008
 20
26.68762552343751
  0
LWPOLYLINE
  5
5A
100
AcDbEntity
  8
0
  6
ByLayer
 62
  256
370
   -1
100
AcDbPolyline
 90
    8
 70
    1
 43
0
 10
18.96249999999998
 20
43.73762552343747
 10
18.96249999999998
 20
30.73762552343757
 42
0.4142135623730576
 10
19.46249999999998
 20
30.23762552343741
 10
32.46249999999998
 20
30.23762552343756
 42
0.4142135623731492
 10
32.96249999999998
 20
30.73762552343757
 10
32.96249999999997
 20
43.73762552343747
 42
0.4142135623731325
 10
32.46249999999998
 20
44.23762552343752
 10
19.46249999999998
 20
44.23762552343747
 42
0.4142135623730409
  0
LWPOLYLINE
  5
5B
100
AcDbEntity
  8
0
  6
ByLayer
 62
  256
370
   -1
100
AcDbPolyline
 90
    8
 70
    1
 43
0
 10
38.01249999999999
 20
43.73762552343747
 10
38.01249999999997
 20
30.73762552343757
 42
0.4142135623731159
 10
38.51249999999999
 20
30.23762552343751
 10
51.51249999999999
 20
30.23762552343756
 42
0.4142135623731658
 10
52.0125000000001
 20
30.73762552343756
 10
52.01250000000007
 20
43.73762552343747
 42
0.4142135623731492
 10
51.51249999999999
 20
44.23762552343752
 10
38.51249999999999
 20
44.23762552343747
 42
0.4142135623730409
  0
LWPOLYLINE
  5
5C
100
AcDbEntity
  8
0
  6
ByLayer
 62
  256
370
   -1
100
AcDbPolyline
 90
    8
 70
    1
 43
0
 10
18.96249999999998
 20
81.83762552343751
 10
18.96249999999997
 20
68.83762552343751
 42
0.4142135623730617
 10
19.46249999999998
 20
68.33762552343745
 10
32.46249999999998
 20
68.33762552343752
 42
0.414213562373095
 10
32.96249999999998
 20
68.83762552343751
 10
32.96249999999996
 20
81.83762552343751
 42
0.4142135623731367
 10
32.46249999999998
 20
82.33762552343757
 10
19.46249999999998
 20
82.33762552343751
 42
0.4142135623731117
  0
LWPOLYLINE
  5
5D
100
AcDbEntity
  8
0
  6
ByLayer
 62
  256
370
   -1
100
AcDbPolyline
 90
    8
 70
    1
 43
0
 10
57.5625
 20
87.38762552343756
 10
70.5625
 20
87.38762552343755
 42
0.4142135623730784
 10
71.0625
 20
87.88762552343749
 10
71.06249999999994
 20
100.8876255234375
 42
0.414213562373095
 10
70.5625
 20
101.3876255234374
 10
57.5625
 20
101.3876255234375
 42
0.414213562373095
 10
57.0625
 20
100.8876255234375
 10
57.06250000000002
 20
87.88762552343752
 42
0.4142135623730784
  0
LWPOLYLINE
  5
5E
100
AcDbEntity
  8
0
  6
ByLayer
 62
  256
370
   -1
100
AcDbPolyline
 90
    8
 70
    1
 43
0
 10
70.5625
 20
125.2001255234368
 10
57.5625
 20
125.2001255234368
 42
0.4142135623731034
 10
57.0625
 20
124.7001255234374
 10
57.0625
 20
111.7001255234376
 42
0.414213562373095
 10
57.5625
 20
111.2001255234373
 10
70.5625
 20
111.2001255234376
 42
0.414213562373095
 10
71.0625
 20
111.7001255234376
 10
71.06249999999999
 20
124.7001255234374
 42
0.41421356237312
  0
LWPOLYLINE
  5
5F
100
AcDbEntity
  8
0
  6
ByLayer
 62
  256
370
   -1
100
AcDbPolyline
 90
    8
 70
    1
 43
0
 10
76.11249999999993
 20
124.7001255234374
 42
-0.4142135623731117
 10
76.61250000000001
 20
125.2001255234374
 10
89.61250000000001
 20
125.2001255234374
 42
-0.4142135623730701
 10
90.1124999999999
 20
124.7001255234374
 10
90.1125000000001
 20
111.7001255234376
 42
-0.4142135623731117
 10
89.61250000000001
 20
111.2001255234376
 10
76.61250000000001
 20
111.2001255234376
 42
-0.4142135623730701
 10
76.11250000000013
 20
111.7001255234376
  0
LWPOLYLINE
  5
60
100
AcDbEntity
  8
0
  6
ByLayer
 62
  256
370
   -1
100
AcDbPolyline
 90
    8
 70
    1
 43
0
 10
89.61250000000001
 20
101.3876255234374
 10
76.61250000000001
 20
101.3876255234374
 42
0.4142135623730617
 10
76.11250000000013
 20
100.8876255234375
 10
76.11250000000011
 20
87.88762552343751
 42
0.4142135623730617
 10
76.61250000000001
 20
87.38762552343755
 10
89.61250000000001
 20
87.38762552343751
 42
0.4142135623731034
 10
90.11250000000007
 20
87.88762552343749
 10
90.1124999999999
 20
100.8876255234375
 42
0.4142135623730617
  0
CIRCLE
  5
61
100
AcDbEntity
  8
0
  6
ByLayer
 62
  256
370
   -1
100
AcDbCircle
 10
73.58749999999998
 20
131.4501255234375
 40
1.15000000000005
  0
CIRCLE
  5
62
100
AcDbEntity
  8
0
  6
ByLayer
 62
  256
370
   -1
100
AcDbCircle
 10
73.58749999999998
 20
4.937625523437474
 40
1.15000000000005
  0
LWPOLYLINE
  5
63
100
AcDbEntity
  8
0
  6
ByLayer
 62
  256
370
   -1
100
AcDbPolyline
 90
    8
 70
    1
 43
0
 10
32.46249999999998
 20
101.3876255234375
 10
19.46249999999998
 20
101.3876255234375
 42
0.4142135623730784
 10
18.96249999999998
 20
100.8876255234375
 10
18.9625
 20
87.88762552343752
 42
0.4142135623730784
 10
19.46249999999998
 20
87.38762552343756
 10
32.46249999999998
 20
87.38762552343752
 42
0.4142135623730867
 10
32.96249999999998
 20
87.88762552343751
 10
32.96249999999995
 20
100.8876255234375
 42
0.4142135623730784
  0
LWPOLYLINE
  5
64
100
AcDbEntity
  8
0
  6
ByLayer
 62
  256
370
   -1
100
AcDbPolyline
 90
    8
 70
    1
 43
0
 10
51.51249999999999
 20
101.3876255234375
 10
38.51249999999999
 20
101.3876255234375
 42
0.4142135623730784
 10
38.01249999999999
 20
100.8876255234375
 10
38.01250000000001
 20
87.88762552343752
 42
0.4142135623730784
 10
38.51249999999999
 20
87.38762552343756
 10
51.51249999999999
 20
87.38762552343752
 42
0.4142135623731034
 10
52.01250000000005
 20
87.88762552343751
 10
52.01250000000005
 20
100.8876255234375
 42
0.414213562373095
  0
LWPOLYLINE
  5
65
100
AcDbEntity
  8
0
  6
ByLayer
 62
  256
370
   -1
100
AcDbPolyline
 90
    8
 70
    1
 43
0
 10
32.46249999999998
 20
125.2001255234368
 10
19.46249999999998
 20
125.2001255234368
 42
0.4142135623731034
 10
18.96249999999998
 20
124.7001255234374
 10
18.96249999999998
 20
111.7001255234376
 42
0.414213562373095
 10
19.46249999999998
 20
111.2001255234373
 10
32.46249999999998
 20
111.2001255234376
 42
0.414213562373095
 10
32.96249999999998
 20
111.7001255234376
 10
32.96249999999999
 20
124.7001255234374
 42
0.4142135623731034
  0
LWPOLYLINE
  5
66
100
AcDbEntity
  8
0
  6
ByLayer
 62
  256
370
   -1
100
AcDbPolyline
 90
    8
 70
    1
 43
0
 10
52.01250000000005
 20
111.7001255234376
 10
52.01250000000005
 20
124.7001255234384
 42
0.414213562373095
 10
51.51249999999999
 20
125.2001255234368
 10
38.51249999999999
 20
125.2001255234384
 42
0.414213562373095
 10
38.01249999999999
 20
124.7001255234384
 10
38.01249999999999
 20
111.7001255234376
 42
0.414213562373095
 10
38.51249999999999
 20
111.2001255234373
 10
51.51249999999999
 20
111.2001255234376
 42
0.4142135623731117
  0
ENDSEC
  0
SECTION
  2
OBJECTS
  0
DICTIONARY
  5
C
330
0
100
AcDbDictionary
281
    1
  3
ACAD_GROUP
350
D
  0
DICTIONARY
  5
D
330
C
100
AcDbDictionary
281
    1
  0
ENDSEC
  0
EOF
